<?xml version="1.0" standalone="no"?><!DOCTYPE svg PUBLIC "-//W3C//DTD SVG 1.1//EN" "http://www.w3.org/Graphics/SVG/1.1/DTD/svg11.dtd"><svg t="1780923875374" class="icon" viewBox="0 0 1024 1024" version="1.1" xmlns="http://www.w3.org/2000/svg" p-id="2643" width="64" height="64" xmlns:xlink="http://www.w3.org/1999/xlink"><path d="M448 576h64v64H448v64H384v-64H320V576h64V512h64v64zM256 448v320h320V448H256zM128 320h576v576H128V320z m256-128V128L320 192h64z m448 0h64l-64-64v64z m0 448v64l64-64h-64z m0 0v64l64-64h-64z m0 0V192H384v64H320V128h576v576h-128v-64h64z m0-448h64l-64-64v64zM384 192V128L320 192h64z" fill="#666666" p-id="2644"></path></svg>